<?xml version="1.0" standalone="no"?>
<!DOCTYPE svg PUBLIC "-//W3C//DTD SVG 20010904//EN"
 "http://www.w3.org/TR/2001/REC-SVG-20010904/DTD/svg10.dtd">
<svg version="1.0" xmlns="http://www.w3.org/2000/svg"
 width="800.000000pt" height="800.000000pt" viewBox="0 0 800.000000 800.000000"
 preserveAspectRatio="xMidYMid meet">
<metadata>
Created by potrace 1.11, written by Peter Selinger 2001-2013
</metadata>
<g transform="translate(0.000000,800.000000) scale(0.100000,-0.100000)"
fill="#000000" stroke="none">
<path d="M3755 7974 c-597 -48 -1096 -187 -1592 -444 -372 -192 -700 -437
-1004 -747 -159 -162 -225 -239 -346 -401 -428 -571 -681 -1215 -770 -1952
-21 -177 -24 -636 -5 -810 122 -1113 638 -2056 1500 -2741 573 -456 1247 -732
2022 -831 141 -18 726 -18 870 0 560 69 1062 230 1520 490 547 308 1025 756
1372 1282 342 520 549 1095 630 1750 18 144 18 729 0 870 -86 673 -290 1232
-649 1772 -261 394 -617 759 -1013 1039 -558 395 -1193 633 -1895 709 -103 11
-551 21 -640 14z m516 -124 c890 -70 1686 -413 2338 -1011 539 -493 937 -1155
1119 -1860 97 -374 128 -649 119 -1069 -7 -342 -31 -523 -107 -837 -209 -850
-713 -1613 -1420 -2149 -533 -404 -1135 -649 -1846 -750 -150 -21 -621 -30
-794 -15 -513 45 -950 168 -1410 398 -1527 762 -2366 2435 -2069 4123 160 910
658 1748 1388 2334 750 602 1735 909 2682 836z"/>
<path d="M1775 6525 c-51 -18 -110 -81 -124 -131 -16 -56 -15 -3593 0 -3649
15 -52 82 -119 134 -134 29 -8 535 -11 1776 -11 l1736 0 11 -25 c18 -40 93
-115 136 -137 57 -29 140 -34 211 -13 82 23 132 50 290 156 222 148 276 164
309 95 36 -76 34 -90 -27 -156 -156 -168 -155 -481 2 -641 105 -108 217 -108
322 0 120 122 151 335 79 525 -32 83 -117 170 -182 186 -44 11 -47 14 -58 59
-30 127 -112 200 -208 187 -68 -9 -151 -52 -298 -151 -247 -169 -348 -193
-432 -102 l-23 24 30 13 c42 17 98 81 110 127 16 55 15 3593 0 3648 -15 52
-82 119 -134 134 -29 8 -548 11 -1830 11 -1517 -1 -1796 -3 -1830 -15z m3656
-134 l29 -29 0 -1792 0 -1792 -29 -29 -29 -29 -1792 0 -1792 0 -29 29 -29 29
0 1792 0 1792 29 29 29 29 1792 0 1792 0 29 -29z"/>
<path d="M3163 5440 c-140 -37 -355 -158 -501 -283 -93 -80 -222 -223 -327
-363 -260 -346 -322 -723 -156 -944 45 -60 86 -93 161 -129 l55 -26 410 -3
410 -3 39 123 c21 68 41 131 43 140 5 16 -24 17 -414 20 -468 3 -453 1 -488
75 -25 53 -23 167 5 258 105 335 474 729 795 850 63 24 135 32 169 19 44 -17
-2 -138 -103 -271 -79 -105 -261 -287 -415 -415 -67 -55 -127 -106 -135 -113
-11 -11 0 -31 70 -124 46 -60 87 -109 91 -108 19 5 370 342 462 442 254 278
346 447 333 612 -10 135 -87 224 -219 252 -75 16 -204 12 -285 -9z"/>
<path d="M4740 5429 c-82 -12 -210 -55 -327 -109 -383 -180 -559 -394 -521
-635 19 -121 93 -227 325 -466 l135 -139 -19 -37 c-37 -73 -40 -73 -469 -73
l-382 0 -44 -137 -44 -138 455 -3 c506 -2 519 -1 617 63 98 64 156 158 173
281 19 133 -2 172 -224 405 -248 261 -268 297 -209 382 98 138 476 340 612
325 l30 -3 -13 -38 c-19 -55 -68 -132 -178 -280 -54 -73 -107 -144 -117 -158
l-19 -26 116 -82 c64 -45 119 -79 124 -74 4 4 59 77 122 161 203 271 252 382
245 547 -3 83 -7 98 -33 135 -39 56 -96 87 -180 100 -79 11 -97 11 -175 -1z"/>
</g>
</svg>
